<svg width="1920" height="1080" viewBox="0 0 1920 1080" fill="none" xmlns="http://www.w3.org/2000/svg">
<g clip-path="url(#clip0_160_954)">
<rect width="1920" height="1080" fill="url(#paint0_linear_160_954)"/>
<path d="M-111.061 192.13C-22.3791 151.423 75.2266 134.031 172.51 141.601C269.794 149.17 363.535 181.45 444.853 235.383C526.172 289.317 592.375 363.117 637.191 449.794C682.008 536.471 703.954 633.155 700.951 730.687C697.948 828.218 670.096 923.369 620.032 1007.12C569.968 1090.88 499.35 1160.47 414.868 1209.3C330.386 1258.13 234.837 1284.58 137.271 1286.15C39.706 1287.72 -56.6449 1264.35 -142.654 1218.27L-80.1802 1101.67C-14.0204 1137.12 60.0941 1155.09 135.143 1153.88C210.191 1152.68 283.689 1132.33 348.674 1094.77C413.659 1057.21 467.979 1003.68 506.489 939.256C544.999 874.83 566.424 801.639 568.734 726.616C571.044 651.593 554.162 577.223 519.689 510.549C485.215 443.876 434.291 387.107 371.74 345.621C309.188 304.135 237.081 279.304 162.249 273.482C87.4171 267.66 12.3373 281.038 -55.878 312.35L-111.061 192.13Z" fill="#14B8A6" fill-opacity="0.07"/>
<path d="M2296.2 363.222C2240.96 443.657 2166.09 508.656 2078.7 552.064C1991.31 595.472 1894.29 615.85 1796.82 611.269C1699.35 606.687 1604.66 577.298 1521.72 525.885C1438.79 474.471 1370.35 402.736 1322.9 317.475C1275.44 232.213 1250.54 136.249 1250.55 38.6707C1250.56 -58.9072 1275.48 -154.867 1322.95 -240.119C1370.42 -325.372 1438.87 -397.093 1521.82 -448.491C1604.76 -499.888 1699.46 -529.259 1796.93 -533.821L1803.11 -401.686C1728.14 -398.176 1655.3 -375.584 1591.49 -336.048C1527.69 -296.513 1475.04 -241.343 1438.52 -175.766C1402.01 -110.189 1382.84 -36.3748 1382.83 38.6835C1382.82 113.742 1401.98 187.559 1438.48 253.144C1474.99 318.728 1527.63 373.908 1591.42 413.456C1655.22 453.004 1728.05 475.61 1803.03 479.134C1878 482.658 1952.64 466.983 2019.86 433.593C2087.08 400.204 2144.67 350.205 2187.16 288.333L2296.2 363.222Z" fill="#14B8A6" fill-opacity="0.07"/>
</g>
<defs>
<linearGradient id="paint0_linear_160_954" x1="960" y1="0" x2="960" y2="1080" gradientUnits="userSpaceOnUse">
<stop stop-color="#0C4A87"/>
<stop offset="1" stop-color="#031221"/>
</linearGradient>
<clipPath id="clip0_160_954">
<rect width="1920" height="1080" fill="white"/>
</clipPath>
</defs>
</svg>
