<svg width="1920" height="1080" viewBox="0 0 1920 1080" fill="none" xmlns="http://www.w3.org/2000/svg">
<g clip-path="url(#clip0_485_2481)">
<rect width="1920" height="1080" fill="url(#paint0_linear_485_2481)"/>
<path d="M2258.2 343.222C2202.96 423.657 2128.09 488.656 2040.7 532.064C1953.31 575.472 1856.29 595.85 1758.82 591.269C1661.35 586.687 1566.66 557.298 1483.72 505.885C1400.79 454.471 1332.35 382.736 1284.9 297.475C1237.44 212.213 1212.54 116.249 1212.55 18.6707C1212.56 -78.9072 1237.48 -174.867 1284.95 -260.119C1332.42 -345.372 1400.87 -417.093 1483.82 -468.491C1566.76 -519.888 1661.46 -549.259 1758.93 -553.821L1765.11 -421.686C1690.14 -418.176 1617.3 -395.584 1553.49 -356.048C1489.69 -316.513 1437.04 -261.343 1400.52 -195.766C1364.01 -130.189 1344.84 -56.3748 1344.83 18.6835C1344.82 93.7419 1363.98 167.559 1400.48 233.144C1436.99 298.728 1489.63 353.908 1553.42 393.456C1617.22 433.004 1690.05 455.61 1765.03 459.134C1840 462.658 1914.64 446.983 1981.86 413.593C2049.08 380.204 2106.67 330.205 2149.16 268.333L2258.2 343.222Z" fill="#14B8A6" fill-opacity="0.07"/>
<path d="M-104.061 574.13C-15.3791 533.423 82.2266 516.031 179.51 523.601C276.794 531.17 370.535 563.45 451.853 617.383C533.172 671.317 599.375 745.117 644.191 831.794C689.008 918.471 710.954 1015.16 707.951 1112.69C704.948 1210.22 677.096 1305.37 627.032 1389.12C576.968 1472.88 506.35 1542.47 421.868 1591.3C337.386 1640.13 241.837 1666.58 144.271 1668.15C46.706 1669.72 -49.6449 1646.35 -135.654 1600.27L-73.1802 1483.67C-7.02043 1519.12 67.0941 1537.09 142.143 1535.88C217.191 1534.68 290.689 1514.33 355.674 1476.77C420.659 1439.21 474.979 1385.68 513.489 1321.26C551.999 1256.83 573.424 1183.64 575.734 1108.62C578.044 1033.59 561.162 959.223 526.689 892.549C492.215 825.876 441.291 769.107 378.74 727.621C316.188 686.135 244.081 661.304 169.249 655.482C94.4171 649.66 19.3373 663.038 -48.878 694.35L-104.061 574.13Z" fill="#14B8A6" fill-opacity="0.07"/>
</g>
<defs>
<linearGradient id="paint0_linear_485_2481" x1="960" y1="0" x2="960" y2="1080" gradientUnits="userSpaceOnUse">
<stop stop-color="#0C4A87"/>
<stop offset="1" stop-color="#031221"/>
</linearGradient>
<clipPath id="clip0_485_2481">
<rect width="1920" height="1080" fill="white"/>
</clipPath>
</defs>
</svg>
